<svg version="1.1" preserveAspectRatio="none" xmlns="http://www.w3.org/2000/svg" width="200" height="150" viewBox="0 0 500 500"><rect width="100%" height="100%" fill="#070707" fill-opacity="1"/><svg viewBox="204.5198 610.4241 392.4032 363.0759" width="333" height="308.1123566270611" x="83.5px" y="95.9438px" xmlns="http://www.w3.org/2000/svg" xmlns:xlink="http://www.w3.org/1999/xlink" preserveAspectRatio="none"><defs></defs><style>.companyName {fill:#F7DC5F;fill-opacity:1;}.icon1 {fill:#F7DC5F;fill-opacity:1;}.icon2 {fill:#8C7848;fill-opacity:1;}.icon3 {fill:#534538;fill-opacity:1;}.icon3-str {stroke:#534538;stroke-opacity:1;}.text {fill:#F7DC5F;fill-opacity:1;}</style><g opacity="1" transform="rotate(0 240.172 949.5)">
<svg width="321.0988" height="24" x="240.172" y="949.5" version="1.1" preserveAspectRatio="none" viewBox="0.36 -26.8 362.8 27.12">
  <g transform="matrix(1 0 0 1 0 0)" class="text"><path id="id-6izo4zJp13" d="M19.16-22.24L12 0L8.60 0L0.36-26.48L3.52-26.48L10.32-4.24L17.44-26.48L20.88-26.48L28-4.24L34.80-26.48L37.96-26.48L29.72 0L26.32 0L19.16-22.24Z M65.04-23.60L48.56-23.60L48.56-14.72L63.28-14.72L63.28-11.80L48.56-11.80L48.56-2.88L65.04-2.88L65.04 0L45.56 0L45.56-26.48L65.04-26.48L65.04-23.60Z M94.12-19.48L94.12-19.48Q94.12-15.12 90.56-13.52L90.56-13.52Q93.84-12.44 95.04-9.56L95.04-9.56Q95.48-8.44 95.48-6.96L95.48-6.96Q95.48-2.16 90.40-0.56L90.40-0.56Q88.72 0 86.44 0L86.44 0L73.88 0L73.88-26.48L85.76-26.48Q90.04-26.48 92.28-24.16L92.28-24.16Q94.12-22.32 94.12-19.48ZM76.88-23.64L76.88-14.64L85.76-14.64Q89.44-14.64 90.68-17.16L90.68-17.16Q91.12-18.04 91.12-19.06Q91.12-20.08 90.84-20.86Q90.56-21.64 89.96-22.24L89.96-22.24Q88.64-23.64 86.08-23.64L86.08-23.64L76.88-23.64ZM76.88-2.84L86.76-2.84Q89.52-2.84 91-3.98Q92.48-5.12 92.48-7.20L92.48-7.20Q92.48-9.20 91.04-10.48L91.04-10.48Q89.44-11.92 86.44-11.92L86.44-11.92L76.88-11.92L76.88-2.84Z M119.92-22.42Q119.16-21.76 118.90-20.96Q118.64-20.16 118.64-19.26Q118.64-18.36 119.42-17.60Q120.20-16.84 121.48-16.32Q122.76-15.80 124.40-15.40Q126.04-15 127.74-14.58Q129.44-14.16 131.08-13.62Q132.72-13.08 134-12.24L134-12.24Q136.84-10.44 136.84-7.32L136.84-7.32Q136.84-3.60 134.06-1.64Q131.28 0.32 126.36 0.32L126.36 0.32Q120.80 0.32 117.88-2L117.88-2Q115.28-4.08 114.92-7.92L114.92-7.92L118.04-7.92Q118.20-5.20 120.68-3.76L120.68-3.76Q122.84-2.52 126.40-2.52L126.40-2.52Q133.84-2.52 133.84-7.20L133.84-7.20Q133.84-8.80 132.50-9.72Q131.16-10.64 129.14-11.24Q127.12-11.84 124.78-12.36Q122.44-12.88 120.42-13.70Q118.40-14.52 117.06-15.86Q115.72-17.20 115.72-19.48L115.72-19.48Q115.72-22.72 118.20-24.76Q120.68-26.80 125.68-26.80L125.68-26.80Q130.72-26.80 133.48-24.48L133.48-24.48Q136-22.44 136.16-19.24L136.16-19.24L133.08-19.24Q132.68-22.52 128.84-23.60L128.84-23.60Q127.48-24 125.46-24Q123.44-24 122.06-23.54Q120.68-23.08 119.92-22.42Z M157.24-26.80L157.24-26.80Q163.16-26.80 166.96-22.84L166.96-22.84Q170.68-19 170.68-13.24Q170.68-7.48 166.96-3.64L166.96-3.64Q163.16 0.32 157.24 0.32L157.24 0.32Q151.32 0.32 147.52-3.64L147.52-3.64Q143.80-7.48 143.80-13.24Q143.80-19 147.52-22.84L147.52-22.84Q151.32-26.80 157.24-26.80ZM157.24-2.60L157.24-2.60Q161.96-2.60 164.88-5.68L164.88-5.68Q167.68-8.64 167.68-13.24L167.68-13.24Q167.68-17.84 164.88-20.80L164.88-20.80Q161.96-23.88 157.24-23.88L157.24-23.88Q152.52-23.88 149.60-20.80L149.60-20.80Q146.80-17.84 146.80-13.24L146.80-13.24Q146.80-8.64 149.60-5.68L149.60-5.68Q152.52-2.60 157.24-2.60Z M179.48-26.48L182.48-26.48L182.48-2.88L196.92-2.88L196.92 0L179.48 0L179.48-26.48Z M222.64-26.48L225.64-26.48L225.64-11.40Q225.64-6.12 222.50-2.90Q219.36 0.32 214.36 0.32L214.36 0.32Q209.40 0.32 206.26-2.90Q203.12-6.12 203.12-11.40L203.12-11.40L203.12-26.48L206.12-26.48L206.12-11.32Q206.12-7.04 208.68-4.64L208.68-4.64Q210.88-2.60 214.36-2.60L214.36-2.60Q217.84-2.60 220.08-4.64L220.08-4.64Q222.64-7 222.64-11.32L222.64-11.32L222.64-26.48Z M254.60-26.48L254.60-23.60L245.36-23.60L245.36 0L242.36 0L242.36-23.60L233.12-23.60L233.12-26.48L254.60-26.48Z M265.40-26.48L265.40 0L262.40 0L262.40-26.48L265.40-26.48Z M287.64-26.80L287.64-26.80Q293.56-26.80 297.36-22.84L297.36-22.84Q301.08-19 301.08-13.24Q301.08-7.48 297.36-3.64L297.36-3.64Q293.56 0.32 287.64 0.32L287.64 0.32Q281.72 0.32 277.92-3.64L277.92-3.64Q274.20-7.48 274.20-13.24Q274.20-19 277.92-22.84L277.92-22.84Q281.72-26.80 287.64-26.80ZM287.64-2.60L287.64-2.60Q292.36-2.60 295.28-5.68L295.28-5.68Q298.08-8.64 298.08-13.24L298.08-13.24Q298.08-17.84 295.28-20.80L295.28-20.80Q292.36-23.88 287.64-23.88L287.64-23.88Q282.92-23.88 280-20.80L280-20.80Q277.20-17.84 277.20-13.24L277.20-13.24Q277.20-8.64 280-5.68L280-5.68Q282.92-2.60 287.64-2.60Z M329.72-26.48L332.72-26.48L332.72 0L329.24 0L312.88-22.36L312.88 0L309.88 0L309.88-26.48L313.36-26.48L329.72-4.20L329.72-26.48Z M346.24-22.42Q345.48-21.76 345.22-20.96Q344.96-20.16 344.96-19.26Q344.96-18.36 345.74-17.60Q346.52-16.84 347.80-16.32Q349.08-15.80 350.72-15.40Q352.36-15 354.06-14.58Q355.76-14.16 357.40-13.62Q359.04-13.08 360.32-12.24L360.32-12.24Q363.16-10.44 363.16-7.32L363.16-7.32Q363.16-3.60 360.38-1.64Q357.60 0.32 352.68 0.32L352.68 0.32Q347.12 0.32 344.20-2L344.20-2Q341.60-4.08 341.24-7.92L341.24-7.92L344.36-7.92Q344.52-5.20 347-3.76L347-3.76Q349.16-2.52 352.72-2.52L352.72-2.52Q360.16-2.52 360.16-7.20L360.16-7.20Q360.16-8.80 358.82-9.72Q357.48-10.64 355.46-11.24Q353.44-11.84 351.10-12.36Q348.76-12.88 346.74-13.70Q344.72-14.52 343.38-15.86Q342.04-17.20 342.04-19.48L342.04-19.48Q342.04-22.72 344.52-24.76Q347-26.80 352-26.80L352-26.80Q357.04-26.80 359.80-24.48L359.80-24.48Q362.32-22.44 362.48-19.24L362.48-19.24L359.40-19.24Q359-22.52 355.16-23.60L355.16-23.60Q353.80-24 351.78-24Q349.76-24 348.38-23.54Q347-23.08 346.24-22.42Z"/></g>
</svg>
</g><g opacity="1" transform="rotate(0 204.5198 827.5)">
<svg width="392.4032" height="100" x="204.5198" y="827.5" version="1.1" preserveAspectRatio="none" viewBox="-6.72 -31.2 163.24 41.6">
  <g transform="matrix(1 0 0 1 0 0)" class="companyName"><path id="id-D6z1nYkh5" d="M5.20 0.92L5.20-24.64Q5.20-26.04 5.06-26.90Q4.92-27.76 4.52-28.26Q4.12-28.76 3.38-28.94Q2.64-29.12 1.40-29.20L1.40-29.20L1.40-30.80L14.88-30.80L14.88-29.20Q13.64-29.16 12.88-28.96Q12.12-28.76 11.72-28.24Q11.32-27.72 11.20-26.80Q11.08-25.88 11.08-24.36L11.08-24.36L11.08 0.08Q11.08 5.12 8.52 7.76Q5.96 10.40 0.88 10.40L0.88 10.40Q-2.76 10.40-4.74 9.16Q-6.72 7.92-6.72 6L-6.72 6Q-6.72 4.84-5.98 4.22Q-5.24 3.60-4.16 3.60L-4.16 3.60Q-3.24 3.60-2.70 4.08Q-2.16 4.56-1.36 5.88L-1.36 5.88Q-0.56 7.20 0.08 7.64Q0.72 8.08 1.64 8.08L1.64 8.08Q3.36 8.08 4.28 6.20Q5.20 4.32 5.20 0.92L5.20 0.92Z M45.48-28.32L46.24-30.80L48.20-30.80L47.40-20.68L45.80-20.68Q44.96-24.36 42.54-26.48Q40.12-28.60 36.68-28.60L36.68-28.60Q34.32-28.60 32.48-27.66Q30.64-26.72 29.38-24.98Q28.12-23.24 27.46-20.74Q26.80-18.24 26.80-15.12L26.80-15.12Q26.80-8.92 29.34-5.58Q31.88-2.24 36.84-2.24L36.84-2.24Q40.84-2.24 43.46-4.40Q46.08-6.56 47.20-10.84L47.20-10.84L48.96-10.84L48.96 0L47.08 0L46.52-3.16Q42.12 0.40 35.84 0.40L35.84 0.40Q32.20 0.40 29.24-0.68Q26.28-1.76 24.20-3.74Q22.12-5.72 20.98-8.56Q19.84-11.40 19.84-14.88L19.84-14.88Q19.84-18.52 21.04-21.52Q22.24-24.52 24.42-26.68Q26.60-28.84 29.62-30.02Q32.64-31.20 36.32-31.20L36.32-31.20Q38.76-31.20 40.88-30.52Q43-29.84 45.48-28.32L45.48-28.32Z M70.96 0L54.28 0L54.28-1.60Q55.60-1.64 56.42-1.82Q57.24-2 57.70-2.50Q58.16-3 58.32-3.86Q58.48-4.72 58.48-6.16L58.48-6.16L58.48-24.64Q58.48-26.04 58.36-26.90Q58.24-27.76 57.84-28.26Q57.44-28.76 56.74-28.94Q56.04-29.12 54.92-29.20L54.92-29.20L54.92-30.80L70.12-30.80Q73.96-30.80 77.20-29.60Q80.44-28.40 82.80-26.28Q85.16-24.16 86.48-21.24Q87.80-18.32 87.80-14.88L87.80-14.88Q87.80-11.60 86.56-8.86Q85.32-6.12 83.10-4.16Q80.88-2.20 77.78-1.10Q74.68 0 70.96 0L70.96 0ZM70.04-28.36L65.04-28.36Q64.36-28.36 64.36-27.68L64.36-27.68L64.36-7Q64.36-4.68 65.80-3.56Q67.24-2.44 70.24-2.44L70.24-2.44Q75.48-2.44 78.30-5.60Q81.12-8.76 81.12-14.80L81.12-14.80Q81.12-18 80.36-20.52Q79.60-23.04 78.16-24.78Q76.72-26.52 74.66-27.44Q72.60-28.36 70.04-28.36L70.04-28.36Z M102.64-27.20L102.64-17.04Q105.20-17.04 106.76-17.20Q108.32-17.36 109.18-17.86Q110.04-18.36 110.40-19.32Q110.76-20.28 110.96-21.92L110.96-21.92L112.44-21.92L112.44-10.20L110.96-10.20Q110.72-11.80 110.32-12.76Q109.92-13.72 109.04-14.22Q108.16-14.72 106.66-14.86Q105.16-15 102.64-15L102.64-15L102.64-6.76Q102.64-5.48 102.98-4.60Q103.32-3.72 104.12-3.18Q104.92-2.64 106.24-2.42Q107.56-2.20 109.48-2.20L109.48-2.20Q111.76-2.20 113.34-2.52Q114.92-2.84 115.96-3.64Q117-4.44 117.64-5.78Q118.28-7.12 118.72-9.16L118.72-9.16L120.32-9.16L119.68 0L92.56 0L92.56-1.60Q93.88-1.64 94.72-1.84Q95.56-2.04 96-2.52Q96.44-3 96.60-3.88Q96.76-4.76 96.76-6.16L96.76-6.16L96.76-24.64Q96.76-26.04 96.62-26.90Q96.48-27.76 96.08-28.26Q95.68-28.76 94.94-28.94Q94.20-29.12 93-29.20L93-29.20L93-30.80L118.28-30.80L118.56-22.96L116.84-22.96Q116.60-24.64 116.08-25.74Q115.56-26.84 114.64-27.50Q113.72-28.16 112.26-28.42Q110.80-28.68 108.68-28.68L108.68-28.68L104.16-28.68Q103.12-28.68 102.88-28.42Q102.64-28.16 102.64-27.20L102.64-27.20Z M134.84-24.40L141.24-6.88L146.44-20.20Q147.20-22.16 147.66-23.40Q148.12-24.64 148.36-25.44Q148.60-26.24 148.68-26.72Q148.76-27.20 148.76-27.64L148.76-27.64Q148.76-28.60 148.04-28.90Q147.32-29.20 145.16-29.20L145.16-29.20L145.16-30.80L156.52-30.80L156.52-29.20Q153.20-29.20 151.92-25.96L151.92-25.96L141.40 0.40L138.44 0.40L128.88-22.96Q128.08-24.84 127.44-26.04Q126.80-27.24 126.08-27.94Q125.36-28.64 124.50-28.90Q123.64-29.16 122.48-29.16L122.48-29.16L122.48-30.80L137.60-30.80L137.60-29.16Q136.56-29.12 135.86-29.04Q135.16-28.96 134.76-28.78Q134.36-28.60 134.20-28.30Q134.04-28 134.04-27.56L134.04-27.56Q134.04-27 134.24-26.24Q134.44-25.48 134.84-24.40L134.84-24.40Z"/></g>
</svg>
</g><g opacity="1" transform="rotate(0 302.6206 610.4241)">
<svg width="196.2016" height="187.0759" x="302.6206" y="610.4241" version="1.1" preserveAspectRatio="none" viewBox="57 59 86 82">
  <g transform="matrix(1 0 0 1 0 0)"><g><path data-color="1" d="M68.339 72.301L57 65.63 68.268 59l11.339 6.671-11.268 6.63zm20.054 48.671L68.368 109.19V72.339L57 65.651v50.241l11.368 6.689v-.013L99.696 141v-.038l.065.038V90.758L88.393 84.07v36.902zM111 84.09l-11.339-6.672-11.268 6.63 11.339 6.672L111 84.09z" class="icon1"></path><path data-color="2" d="M131.602 122.471v-.233l-.201.116.201.117z" class="icon2"></path><path data-color="2" d="M120.198 65.622l11.466 6.66v36.473l-.172.1v.171l.061.036L111 121v-13.32l9.198-5.342V65.622zm22.802.021L131.563 59l-11.366 6.601 11.437 6.643L143 65.643z" class="icon2"></path></g></g>
</svg>
</g></svg></svg>